<?xml version="1.0" encoding="iso-8859-1"?>
<!-- Generator: Adobe Illustrator 19.0.0, SVG Export Plug-In . SVG Version: 6.00 Build 0)  -->
<svg version="1.1" id="Layer_1" xmlns="http://www.w3.org/2000/svg" xmlns:xlink="http://www.w3.org/1999/xlink" x="0px" y="0px"
	 viewBox="0 0 512 512" style="enable-background:new 0 0 512 512;" xml:space="preserve">
<path style="fill:#FFDE33;" d="M437.377,74.207c-6.788-6.788-13.789-13.364-21.637-19.516
	c-88.035-70.217-217.86-73.187-308.441-6.79C38.357,98.602-0.675,179.213,2.506,263.852c1.274,35.215,28.002,64.066,65.549,70.216
	c11.667,1.91,23.123,5.305,33.73,10.396l65.336,65.336c5.091,10.607,8.486,22.063,10.396,33.729
	c6.15,37.123,33.516,65.76,79.548,65.974c67.247-0.212,132.583-26.941,180.312-74.671
	C535.17,337.039,538.564,175.395,437.377,74.207z M352.524,434.832L352.524,434.832c-17.574,17.574-46.066,17.574-63.64,0l0,0
	c-17.574-17.574-17.574-46.066,0-63.64l0,0c17.574-17.573,46.066-17.573,63.639,0l0,0
	C370.098,388.766,370.098,417.258,352.524,434.832z"/>
<path style="fill:#FFBC33;" d="M437.377,74.207L134.453,377.131l32.668,32.668c5.091,10.607,8.486,22.063,10.396,33.729
	c6.15,37.123,33.516,65.76,79.548,65.974c67.247-0.212,132.583-26.941,180.312-74.671
	C535.17,337.039,538.564,175.395,437.377,74.207z M352.524,434.832L352.524,434.832c-17.574,17.574-46.066,17.574-63.64,0l0,0
	c-17.574-17.574-17.574-46.066,0-63.64l0,0c17.574-17.573,46.066-17.573,63.639,0l0,0
	C370.098,388.766,370.098,417.258,352.524,434.832z"/>
<path style="fill:#7BCC29;" d="M76.753,222.7L76.753,222.7c-17.574-17.574-17.574-46.066,0-63.64l0,0
	c17.574-17.574,46.066-17.574,63.64,0l0,0c17.574,17.574,17.574,46.066,0,63.64l0,0C122.819,240.273,94.326,240.273,76.753,222.7z"
	/>
<path style="fill:#5AF1FF;" d="M161.605,137.847L161.605,137.847c-17.574-17.574-17.574-46.066,0-63.64l0,0
	c17.574-17.574,46.066-17.574,63.64,0l0,0c17.574,17.574,17.574,46.066,0,63.64l0,0
	C207.671,155.421,179.179,155.421,161.605,137.847z"/>
<path style="fill:#4DA6FF;" d="M288.885,137.847L288.885,137.847c-17.574-17.574-17.574-46.066,0-63.64l0,0
	c17.574-17.574,46.066-17.574,63.64,0l0,0c17.574,17.574,17.574,46.066,0,63.64l0,0
	C334.951,155.421,306.458,155.421,288.885,137.847z"/>
<path style="fill:#E673AD;" d="M373.738,222.7L373.738,222.7c-17.574-17.574-17.574-46.066,0-63.64l0,0
	c17.574-17.574,46.066-17.574,63.64,0l0,0c17.574,17.574,17.574,46.066,0,63.64l0,0C419.803,240.273,391.311,240.273,373.738,222.7z
	"/>
<path style="fill:#CF4529;" d="M373.738,349.979L373.738,349.979c-17.574-17.574-17.574-46.066,0-63.64l0,0
	c17.574-17.574,46.066-17.574,63.64,0l0,0c17.574,17.574,17.574,46.066,0,63.64l0,0
	C419.803,367.553,391.311,367.553,373.738,349.979z"/>
<path style="fill:#5C5F66;" d="M163.091,436.317l-84.023,65.347c-19.516,15.274-47.305,13.364-64.7-4.031s-19.305-45.184-4.031-64.7
	l64.931-84.44l29.274,8.061l50.488,50.488L163.091,436.317z"/>
<path style="fill:#53565C;" d="M163.091,436.317l-84.023,65.347c-19.516,15.274-47.305,13.364-64.7-4.031l115.418-115.835
	l25.244,25.244L163.091,436.317z"/>
<path style="fill:#DBE2F2;" d="M204.011,307.568c-29.24-29.272-76.942-25.537-101.704,6.327L75.34,348.566l87.673,87.673
	l34.671-26.967C229.923,384.215,232.9,336.457,204.011,307.568z"/>
<path style="fill:#C3CAD9;" d="M204.014,307.571l-84.835,84.835l43.834,43.834l34.671-26.967
	C229.922,384.215,232.898,336.461,204.014,307.571z"/>
<path style="fill:#7C8089;" d="M288.885,328.766c-14.637,14.637-33.73,21.849-53.032,22.061
	c-19.305-0.212-38.397-7.424-53.034-22.061c-29.274-29.274-29.274-76.792,0-106.066c8.061-8.061,17.395-14,28.002-17.82
	l10.182-2.545l29.911,58.336l58.549,30.124c-0.425,0.847-2.547,8.909-2.97,9.757C302.885,311.371,296.946,320.705,288.885,328.766z"
	/>
<path style="fill:#6F737B;" d="M288.885,328.766c-14.637,14.637-33.73,21.849-53.032,22.061
	c-19.305-0.212-38.397-7.424-53.034-22.061l68.095-68.095l58.549,30.124c-0.425,0.847-2.547,8.909-2.97,9.757
	C302.885,311.371,296.946,320.705,288.885,328.766z"/>
<path style="fill:#E55639;" d="M331.439,180.402c3.523,3.603,5.369,8.846,3.691,14.296l-17.606,65.973l-8.061,30.124l-28.634-0.083
	c-33.069-0.096-59.825-26.93-59.826-59.999l-0.001-28.378l29.699-8.061l66.185-17.818c5.516-1.699,10.819,0.212,14.425,3.818
	C331.354,180.316,331.396,180.359,331.439,180.402z"/>
<path style="fill:#CF4529;" d="M280.829,290.711l28.634,0.083l8.061-30.124l17.606-65.973c1.679-5.45-0.168-10.693-3.691-14.296
	c-0.042-0.043-0.085-0.086-0.128-0.129l0,0l-92.8,92.8C249.335,283.929,264.292,290.664,280.829,290.711z"/>
<g>
</g>
<g>
</g>
<g>
</g>
<g>
</g>
<g>
</g>
<g>
</g>
<g>
</g>
<g>
</g>
<g>
</g>
<g>
</g>
<g>
</g>
<g>
</g>
<g>
</g>
<g>
</g>
<g>
</g>
</svg>
